<?xml version="1.0" encoding="utf-8"?>
<!-- Generator: Adobe Illustrator 19.0.0, SVG Export Plug-In . SVG Version: 6.00 Build 0)  -->
<svg version="1.1" id="Layer_1" xmlns="http://www.w3.org/2000/svg" xmlns:xlink="http://www.w3.org/1999/xlink" x="0px" y="0px"
	 viewBox="0 0 211.3 92.3" style="enable-background:new 0 0 211.3 92.3;" xml:space="preserve">
<g id="XMLID_1_">
	<path id="XMLID_3_" d="M35.1,62.1c-1.8,0-3.8-0.4-6-1.1c-3.1-1.1-6-2.5-8.7-4.3c-1-0.7-2.1-1.4-3.1-2.2c-1.9,1.8-4,2.7-6.3,2.7
		c-1,0-1.9-0.2-2.9-0.6c-1.1-0.4-2-1-2.5-1.8c-0.6-0.8-0.8-1.7-0.8-2.7c0-0.3,0-0.6,0.1-0.9c0.3-1.5,1.1-2.5,2.3-3.1
		c1.1-0.6,2.3-0.9,3.6-0.9c1.2,0,2.3,0.2,3.4,0.6h0c0.2-1.6,0.4-3.2,0.4-4.8c0.1-3.2,0.1-6.5,0.1-9.7c0-0.6,0-1.3,0-1.9
		c0-0.6,0-1.3,0-1.9c0-0.7,0-1.5-0.1-2.2c-3.5-0.9-6.5-2.3-8.8-4.3c-2.5-2.2-3.9-5-4.2-8.3c0-0.4-0.1-0.8-0.1-1.2
		c0-4.1,1.3-6.8,3.8-8.1C6.2,5.3,7,5.2,7.8,5.2c1.1,0,2.2,0.2,3.2,0.7c0.4,0.2,0.5,0.4,0.5,0.7c0,0.4-0.2,0.7-0.5,1.1
		c-0.7,0.8-1.3,1.6-1.9,2.6c-1.1,2.2-1.6,4.5-1.6,6.9v0.3c0,3,1.1,5.1,3.2,6.3l0.1,0.1c1.3,0.6,2.6,1.1,4,1.4l0-4.8
		c0-4.2,0.2-7.3,0.6-9.4c0.3-1.8,0.9-3.4,1.8-5c0.9-1.6,2.1-2.8,3.6-3.8C22.2,1.4,23.8,1,25.5,1c1,0,2,0.2,3,0.6
		c1,0.4,1.8,1,2.5,1.7c1,1.1,1.7,2.4,2.2,3.8c0.5,1.5,0.7,2.9,0.7,4.4c0,0.5,0,1.1-0.1,1.6c-0.3,3.1-1.3,5.9-2.9,8.5
		c-0.9,1.4-2,2.7-3.4,3.7c-1.8,1.4-3.9,2.2-6.3,2.6L21.1,39c0,2-0.1,3.9-0.3,5.9c-0.2,2-0.6,3.9-1.3,5.8l0.1,0.1
		c2.8,1.5,5.7,2.9,8.6,4.2c2.6,1.3,5.4,2.2,8.3,2.9l0.1,0c0.5,0.1,1.1,0.2,1.7,0.2c0.9,0,1.6-0.3,2.1-1l0.3-0.3
		c0.3-0.3,0.6-0.4,0.9-0.4c0.2,0,0.3,0,0.5,0.1c0.2,0.1,0.3,0.2,0.4,0.4c0.1,0.2,0.1,0.3,0.1,0.5c0,0.1,0,0.2-0.1,0.3
		c-0.7,1.5-1.6,2.6-2.9,3.3c-1.1,0.6-2.3,1-3.7,1.1L35.1,62.1z M9.8,54.7c0.3,0,0.6,0,0.9-0.1c1.3-0.4,2.2-1.4,2.7-3L13,51.3
		c-0.2-0.1-0.4-0.3-0.6-0.4c-1.1-0.6-2.2-0.9-3.1-0.9c-1.1,0-1.8,0.5-2.2,1.4C7,51.8,6.9,52,6.9,52.3c0,0.7,0.3,1.3,0.9,1.7
		S9.1,54.7,9.8,54.7z M21.2,25.8c1.1-0.1,2.1-0.4,3-0.9c2.6-1.3,4.5-3.3,5.7-6c0.8-1.7,1.4-3.5,1.7-5.3c0.1-0.4,0.1-1.1,0.1-2
		c0-0.7-0.1-1.5-0.2-2.4c0,0,0,0,0-0.1c0,0,0-0.1,0-0.1c-0.3-1-0.7-1.9-1.4-2.7c-0.5-0.6-1.2-0.9-1.9-1.1l-0.6,0
		c-0.5,0-0.9,0.1-1.5,0.3c-0.7,0.3-1.3,0.7-1.9,1.3c-0.6,0.7-1.1,1.6-1.4,2.6c-0.3,1-0.6,2-0.8,3c-0.5,2.5-0.7,5-0.7,7.6L21.2,25.8z
		"/>
	<path id="XMLID_7_" d="M48.8,62.2l-0.8,0c-2-0.2-3.7-1-5.1-2.4c-1-1.1-1.6-2.4-2-3.9c-0.6-2.1-0.9-4.8-0.9-8c0-2.2,0.1-5.3,0.3-9.2
		l0.3-7.3c0-1.1,0.5-1.8,1.4-2.2c0.9-0.3,1.9-0.4,2.9-0.4c0.5,0,1,0,1.5,0.1l0.2,0c0.8,0,1.4,0.2,1.7,0.6c0.3,0.4,0.4,0.8,0.4,1.2
		l-0.3,5c-0.3,3.5-0.4,6.9-0.4,10.4c0,2.3,0.1,4.7,0.4,7c0.1,0.7,0.2,1.4,0.3,2.1c0.2,0.7,0.5,1.4,0.9,1.9c0.4,0.4,0.9,0.6,1.4,0.6
		c0.1,0,0.2,0,0.3,0c1-0.3,2-1.2,3-2.8c1.4-2.1,2.6-4.4,3.4-6.8l2.8-7.6c0.2-0.6,0.6-0.9,1.2-0.9c0.4,0,0.7,0.2,1,0.5
		c0.2,0.2,0.2,0.5,0.2,0.8l0,0.3l-0.8,2.1l-1.3,3.6c-1.2,3.5-2.6,6.8-4.3,10c-0.5,1-1.2,1.8-2,2.7C52.8,61.3,50.9,62.2,48.8,62.2z
		 M45,26.6c-1.2,0-2.2-0.6-3-1.7c-0.3-0.5-0.5-1.1-0.5-1.7c0-0.8,0.3-1.6,0.8-2.3c0.8-0.8,1.6-1.2,2.6-1.2c0.4,0,0.8,0.1,1.1,0.2
		c1.5,0.7,2.3,1.7,2.3,3.2c0,0.8-0.3,1.5-0.8,2.1C47,26.1,46.1,26.6,45,26.6z"/>
	<path id="XMLID_10_" d="M64.8,91.3H63c-0.8,0-1.4-0.1-1.9-0.4c-0.6-0.5-1-1-1.1-1.7c-0.1-0.6-0.1-1.1-0.1-1.7v-0.9
		c-0.1-5.8-0.1-12.7-0.1-20.8c0-10.8,0.1-21.7,0.2-32.6v-1c0-1.6,0.5-2.5,1.5-2.8c0.6-0.2,1.2-0.2,1.8-0.3c0.6,0,1.2,0,1.7,0
		c0.5,0,1,0.1,1.5,0.2c0.5,0.1,0.9,0.4,1.2,0.8c0.2,0.5,0.3,1,0.3,1.6v1.5c0,1.3-0.1,2.5-0.1,3.6c1-2.2,2.4-3.9,4.1-5.1
		c1.7-1.2,3.7-1.8,6-1.8c1.3,0,2.5,0.2,3.7,0.7c1.2,0.4,2.2,1.2,3,2.2c2.1,2.6,3.1,6.1,3.1,10.5c0,2.3-0.4,4.7-1.1,7.1
		c1.9-1,3.4-2.4,4.5-4.2c1.1-1.8,2-3.7,2.7-5.8c0.1-0.3,0.3-0.5,0.5-0.6c0.2-0.1,0.4-0.2,0.7-0.2c0.3,0,0.6,0.1,0.9,0.3
		c0.3,0.2,0.4,0.5,0.4,0.8l-0.1,0.4c-1,3-2.3,5.6-4,7.8c-1.7,2.2-3.9,3.8-6.7,4.6c-1.8,3.8-4.4,6.4-7.8,7.9
		c-1.1,0.5-2.2,0.8-3.3,0.8c-0.8,0-1.7-0.2-2.5-0.6c-0.8-0.4-1.4-1-1.8-1.8c-0.3-0.7-0.5-1.4-0.5-2.2c0-1.5,0.6-2.8,1.7-4
		c1-0.8,2-1.3,3.2-1.5c1.2-0.2,2.5-0.3,3.7-0.3c0.9-3.3,1.4-6.7,1.4-10.1c0-2.1-0.2-3.9-0.5-5.5c-0.5-2.4-1.6-3.6-3-3.6
		c-0.9,0-1.8,0.3-2.6,0.8c-1.6,1.1-2.8,2.7-3.7,5c-0.8,2-1.3,4-1.5,6.1c-0.3,2.1-0.4,4.2-0.4,6.3v13.3c0,10.7-0.1,18.5-0.2,23.5
		c0,0.8,0,1.4-0.1,1.8c-0.1,0.5-0.3,0.9-0.7,1.2C66.4,91.2,65.7,91.3,64.8,91.3z M73.6,59.4c0.8,0,1.4-0.5,2-1.4
		c0.9-1.2,1.5-2.4,1.8-3.6c-0.1,0-0.2-0.1-0.3-0.1l-0.5,0c-1.3,0-2.4,0.3-3.5,1c-0.3,0.3-0.6,0.6-0.8,1.1c-0.2,0.5-0.3,0.9-0.3,1.4
		c0,0.4,0.1,0.8,0.3,1.1C72.6,59.2,73,59.4,73.6,59.4z"/>
	<path id="XMLID_13_" d="M98.1,91.3h-1.7c-0.8,0-1.4-0.1-1.9-0.4c-0.6-0.5-1-1-1.1-1.7c-0.1-0.6-0.1-1.1-0.1-1.7v-0.9
		c-0.1-5.8-0.1-12.7-0.1-20.8c0-10.8,0.1-21.7,0.2-32.6v-1c0-1.6,0.5-2.5,1.5-2.8c0.6-0.2,1.2-0.2,1.8-0.3c0.6,0,1.2,0,1.7,0
		c0.5,0,1,0.1,1.5,0.2c0.5,0.1,0.9,0.4,1.2,0.8c0.2,0.5,0.3,1,0.3,1.6v1.5c0,1.3-0.1,2.5-0.1,3.6c1-2.2,2.4-3.9,4.1-5.1
		c1.7-1.2,3.7-1.8,6-1.8c1.3,0,2.5,0.2,3.7,0.7c1.2,0.4,2.2,1.2,3,2.2c2.1,2.6,3.1,6.1,3.1,10.5c0,2.3-0.4,4.7-1.1,7.1
		c1.9-1,3.4-2.4,4.5-4.2c1.1-1.8,2-3.7,2.7-5.8c0.1-0.3,0.3-0.5,0.5-0.6c0.2-0.1,0.4-0.2,0.7-0.2c0.3,0,0.6,0.1,0.9,0.3
		c0.3,0.2,0.4,0.5,0.4,0.8l-0.1,0.4c-1,3-2.3,5.6-4,7.8c-1.7,2.2-3.9,3.8-6.7,4.6c-1.8,3.8-4.4,6.4-7.8,7.9
		c-1.1,0.5-2.2,0.8-3.3,0.8c-0.8,0-1.7-0.2-2.5-0.6c-0.8-0.4-1.4-1-1.8-1.8c-0.3-0.7-0.5-1.4-0.5-2.2c0-1.5,0.6-2.8,1.7-4
		c1-0.8,2-1.3,3.2-1.5c1.2-0.2,2.5-0.3,3.7-0.3c0.9-3.3,1.4-6.7,1.4-10.1c0-2.1-0.2-3.9-0.5-5.5c-0.5-2.4-1.6-3.6-3-3.6
		c-0.9,0-1.8,0.3-2.6,0.8c-1.6,1.1-2.8,2.7-3.7,5c-0.8,2-1.3,4-1.5,6.1c-0.3,2.1-0.4,4.2-0.4,6.3v13.3c0,10.7-0.1,18.5-0.2,23.5
		c0,0.8,0,1.4-0.1,1.8c-0.1,0.5-0.3,0.9-0.7,1.2C99.7,91.2,99.1,91.3,98.1,91.3z M106.9,59.4c0.8,0,1.4-0.5,2-1.4
		c0.9-1.2,1.5-2.4,1.8-3.6c-0.1,0-0.2-0.1-0.3-0.1l-0.5,0c-1.3,0-2.4,0.3-3.5,1c-0.3,0.3-0.6,0.6-0.8,1.1c-0.2,0.5-0.3,0.9-0.3,1.4
		c0,0.4,0.1,0.8,0.3,1.1C105.9,59.2,106.3,59.4,106.9,59.4z"/>
	<path id="XMLID_16_" d="M135.3,62.2l-0.8,0c-2-0.2-3.7-1-5.1-2.4c-1-1.1-1.6-2.4-2-3.9c-0.6-2.1-0.9-4.8-0.9-8
		c0-2.2,0.1-5.3,0.3-9.2l0.3-7.3c0-1.1,0.5-1.8,1.4-2.2c0.9-0.3,1.9-0.4,2.9-0.4c0.5,0,1,0,1.5,0.1l0.2,0c0.8,0,1.4,0.2,1.7,0.6
		c0.3,0.4,0.4,0.8,0.4,1.2l-0.3,5c-0.3,3.5-0.4,6.9-0.4,10.4c0,2.3,0.1,4.7,0.4,7c0.1,0.7,0.2,1.4,0.3,2.1c0.2,0.7,0.5,1.4,0.9,1.9
		c0.4,0.4,0.9,0.6,1.4,0.6c0.1,0,0.2,0,0.3,0c1-0.3,2-1.2,3-2.8c1.4-2.1,2.6-4.4,3.4-6.8l2.8-7.6c0.2-0.6,0.6-0.9,1.2-0.9
		c0.4,0,0.7,0.2,1,0.5c0.2,0.2,0.2,0.5,0.2,0.8l0,0.3l-0.8,2.1l-1.3,3.6c-1.2,3.5-2.6,6.8-4.3,10c-0.5,1-1.2,1.8-2,2.7
		C139.3,61.3,137.4,62.2,135.3,62.2z M131.5,26.6c-1.2,0-2.2-0.6-3-1.7c-0.3-0.5-0.5-1.1-0.5-1.7c0-0.8,0.3-1.6,0.8-2.3
		c0.8-0.8,1.6-1.2,2.6-1.2c0.4,0,0.8,0.1,1.1,0.2c1.5,0.7,2.3,1.7,2.3,3.2c0,0.8-0.3,1.5-0.8,2.1C133.4,26.1,132.6,26.6,131.5,26.6z
		"/>
	<path id="XMLID_19_" d="M158.3,62.1c-2.8,0-5.3-0.9-7.6-2.8c-1.8-1.6-3.1-3.5-4-5.8c-0.8-2.3-1.2-4.6-1.2-6.9c0-4,1-7.7,3.1-11
		c1.8-2.9,4.3-4.9,7.6-6c1-0.3,1.9-0.4,2.7-0.4c2.4,0,4.4,0.8,6.1,2.5c1.7,1.7,2.8,3.7,3.3,6.2l0,0.3c0,0.4-0.1,0.7-0.4,0.9
		c-0.3,0.2-0.6,0.3-0.9,0.3c-0.6,0-0.9-0.3-1.1-0.9c-0.3-1.4-0.8-2.7-1.6-4.1c-0.8-1.3-1.9-2.2-3.3-2.5l-0.5,0
		c-0.8,0-1.6,0.3-2.3,0.9c-1.1,1.1-2,2.3-2.6,3.8c-0.8,1.6-1.3,3.3-1.6,5.1c-0.3,1.8-0.5,3.8-0.5,5.9c0,2.5,0.5,4.9,1.6,7.2
		c0.5,0.8,1.1,1.6,1.9,2.1c0.8,0.6,1.7,0.9,2.7,0.9c1.3,0,2.6-0.3,3.8-0.8c1.2-0.6,2.4-1.2,3.4-2.1c2.2-1.8,4-4,5.4-6.6
		c1.4-2.5,2.4-5.2,3.3-7.9c0.2-0.6,0.6-0.9,1.2-0.9c0.3,0,0.6,0.1,0.9,0.3s0.4,0.5,0.4,0.8c0,0.1-0.1,0.4-0.2,0.8
		c-0.6,2-1.4,4.1-2.4,6.1c-2.9,6.4-6.6,10.8-11.4,13.1C162.2,61.7,160.3,62.1,158.3,62.1z"/>
	<path id="XMLID_21_" d="M179.7,62.1h-1.4c-0.6,0-1.2-0.1-1.8-0.2c-0.8-0.3-1.2-0.9-1.4-1.7c-0.2-0.8-0.3-1.6-0.3-2.3
		c0-7.8,0-13.2,0-16.3c0-10.6,0.4-19.5,1.1-26.5c0.5-5.3,1.5-9,3-11.1c0.8-1.1,1.8-1.9,3.1-2.5c0.8-0.3,1.6-0.4,2.4-0.4
		c1.5,0,2.9,0.5,4.2,1.4c2,1.5,2.9,3.8,2.9,6.9v0.4c0,3-0.6,6-1.8,8.8c-1.1,2.7-2.6,5.2-4.5,7.5l-0.2,0.2c-0.6,0.8-1.3,1.5-2.1,2.1
		c-0.1,1.6-0.1,3.1-0.1,4.7c0.9-1.3,1.9-2.4,3.2-3.3c1.6-1.2,3.3-1.7,5.1-1.7c1.3,0,2.5,0.4,3.6,1.1c1.4,1.1,2.1,2.7,2.1,4.7
		c0,0.8-0.1,1.5-0.3,2.3c-0.8,2.9-2.4,5.3-4.8,7.2c-1.3,1-2.7,1.7-4.2,2.2c0.5,1,1,1.9,1.6,2.9c1.3,2.4,2.8,4.7,4.5,6.8
		c0.3,0.4,0.7,0.8,1,1.2c0.7,0.7,1.5,1.1,2.3,1.1c0.2,0,0.5,0,0.7-0.1c0.5-0.2,1-0.5,1.4-1c0.9-0.9,1.7-1.9,2.4-3.1
		c2.3-4.1,4.2-8.4,5.7-12.9c0.2-0.6,0.6-0.9,1.2-0.9c0.3,0,0.6,0.1,0.8,0.3c0.3,0.2,0.4,0.5,0.4,0.8c0,0.1,0,0.3-0.1,0.4
		c-2.1,5.7-4.3,10.6-6.7,14.6c-0.7,1.2-1.3,2.2-1.8,2.8c-0.6,0.9-1.4,1.6-2.3,2.3c-1.2,0.8-2.5,1.1-3.8,1.1c-0.3,0-0.5,0-0.7,0
		c-1.6-0.2-3.1-0.8-4.4-1.7c-2.4-1.6-4.7-4.5-6.8-8.6c0,2.6,0,4.6,0.1,6c0,0.3,0,0.6,0,0.9c0,0.7-0.1,1.4-0.3,2
		c-0.2,0.6-0.7,1-1.5,1.2C180.8,62.1,180.3,62.1,179.7,62.1z M182.9,43.4c0,0,0.1,0,0.1,0l0.7-0.4l0.2-0.2c2.4-2.3,4.4-5.1,5.9-8.3
		c0.3-0.6,0.5-1.2,0.7-1.6c0.1-0.4,0.2-1,0.2-1.8c0,0,0-0.1-0.1-0.1c0,0-0.1-0.1-0.3-0.1c-0.3,0-0.6,0.1-0.9,0.2
		c-0.3,0.1-0.5,0.2-0.8,0.2c-1.7,0.9-3.1,2.3-4.1,4.1c-1,1.9-1.5,3.8-1.6,5.7c0,0.2,0,0.3-0.1,0.4V43.4z M183.3,24.9
		c4-4.8,6-9.9,6-15.4c0-2.8-0.7-4.5-2.2-5.2l-0.3,0.1c-0.4,0.4-0.7,0.8-0.9,1.3l-0.4,1.1c-0.8,2.7-1.4,5.7-1.7,8.8
		S183.4,21.9,183.3,24.9z"/>
</g>
</svg>
